<svg x="0" y="0" width="53" height="59.99999999999977" class="imagesvg-svg"><svg xmlns="http://www.w3.org/2000/svg" viewBox="0 0 226.3 253.16"><g><g fill-rule="evenodd"><path d="M86.06 91.78h53.34L162.13 69V32.29a5.65 5.65 0 0 1 5.64-5.64h39.66a5.65 5.65 0 0 1 5.64 5.64V72a5.65 5.65 0 0 1-5.64 5.64h-36.75l-22.74 22.74v53.34a7.73 7.73 0 0 1-7.7 7.7H86.9l-22.74 22.69v36.76a5.65 5.65 0 0 1-5.64 5.64H18.86a5.65 5.65 0 0 1-5.64-5.64V181.2a5.65 5.65 0 0 1 5.64-5.64h36.76l22.73-22.73V99.49a7.72 7.72 0 0 1 7.71-7.71z" fill="#ed7100"></path><path d="M100.09 183.57h53.34l21.93-21.93v-36.76a5.65 5.65 0 0 1 5.64-5.64h39.66a5.65 5.65 0 0 1 5.64 5.64v39.66a5.65 5.65 0 0 1-5.64 5.64H183.9L162 192.11v53.34a7.73 7.73 0 0 1-7.7 7.7h-54.21a7.73 7.73 0 0 1-7.7-7.7v-54.18a7.73 7.73 0 0 1 7.7-7.7zm26.12-114a7.73 7.73 0 0 0 7.7-7.7V7.7a7.73 7.73 0 0 0-7.7-7.7H72a7.73 7.73 0 0 0-7.7 7.7V61L42.4 83H5.64A5.65 5.65 0 0 0 0 88.61v39.66a5.65 5.65 0 0 0 5.64 5.64H45.3a5.65 5.65 0 0 0 5.64-5.64V91.52l21.93-21.93z" fill="#80ba27"></path></g></g></svg></svg>